Coordinates
version=1
nRows=16
nColumns=63
inDegrees=yes

Units are S.I. units (second, meters, Newtons, ...)
If the header above contains a line with 'inDegrees', this indicates whether rotational values are in degrees (yes) or radians (no).

endheader
time	pelvis_tilt	pelvis_list	pelvis_rotation	pelvis_tx	pelvis_ty	pelvis_tz	hip_flexion_r	hip_adduction_r	hip_rotation_r	knee_angle_r	knee_angle_r_beta	ankle_angle_r	subtalar_angle_r	mtp_angle_r	hip_flexion_l	hip_adduction_l	hip_rotation_l	knee_angle_l	knee_angle_l_beta	ankle_angle_l	subtalar_angle_l	mtp_angle_l	L5_S1_Flex_Ext	L5_S1_Lat_Bending	L5_S1_axial_rotation	L4_L5_Flex_Ext	L4_L5_Lat_Bending	L4_L5_axial_rotation	L3_L4_Flex_Ext	L3_L4_Lat_Bending	L3_L4_axial_rotation	L2_L3_Flex_Ext	L2_L3_Lat_Bending	L2_L3_axial_rotation	L1_L2_Flex_Ext	L1_L2_Lat_Bending	L1_L2_axial_rotation	L1_T12_Flex_Ext	L1_T12_Lat_Bending	L1_T12_axial_rotation	Abs_r3	Abs_r2	Abs_r1	Abs_t1	Abs_t2	neck_flexion	neck_bending	neck_rotation	arm_flex_r	arm_add_r	arm_rot_r	elbow_flex_r	pro_sup_r	wrist_flex_r	wrist_dev_r	arm_flex_l	arm_add_l	arm_rot_l	elbow_flex_l	pro_sup_l	wrist_flex_l	wrist_dev_l
0.000000	-1.170752	-6.089407	97.858770	0.275572	0.749591	0.919059	3.382630	-0.634183	-13.487644	7.247425	0.126491	22.248386	16.269810	0.000000	4.462570	1.088252	-6.149169	6.683059	0.116641	24.262219	6.181835	0.000000	0.089167	0.036907	-0.555950	0.165592	0.049087	-0.590697	0.146492	0.089736	-0.590697	0.101909	0.089736	-0.486456	0.082800	0.075261	-0.451709	0.050950	0.057169	-0.416963	0.636910	0.417503	-3.092028	0.000000	0.000000	23.987845	-0.972217	4.198860	14.586859	-5.047026	59.279513	40.898021	60.286706	8.743373	14.652768	12.769837	-9.821884	62.390752	47.333546	38.535947	-12.262121	-1.034270
0.024390	-1.044988	-6.055419	97.610870	0.275921	0.749018	0.919174	3.442633	-0.452158	-13.041126	7.225125	0.126102	22.530671	16.339132	0.000000	4.429228	0.974865	-6.200116	6.818367	0.119003	24.190024	5.936975	0.000000	0.090598	0.050355	-0.535223	0.168250	0.066972	-0.568675	0.148843	0.122433	-0.568675	0.103544	0.122433	-0.468320	0.084129	0.102684	-0.434869	0.051768	0.078000	-0.401417	0.647133	0.569625	-2.976751	0.000000	0.000000	24.550919	-0.498048	4.404854	14.138263	-5.079185	58.658459	41.132285	59.899501	8.613765	15.231799	12.878917	-10.125403	62.382576	47.562085	43.099664	-11.837529	0.422008
0.048780	-0.948978	-6.019453	97.419535	0.276169	0.748543	0.919192	3.470090	-0.312481	-12.720143	7.210772	0.125852	22.745655	16.394055	0.000000	4.385865	0.888433	-6.219193	6.932799	0.121000	24.140875	5.711676	0.000000	0.093148	0.060720	-0.518582	0.172985	0.080757	-0.550994	0.153033	0.147634	-0.550994	0.106459	0.147634	-0.453760	0.086497	0.123819	-0.421348	0.053225	0.094055	-0.388937	0.665347	0.686872	-2.884200	0.000000	0.000000	25.010291	-0.089047	4.618043	13.728395	-5.124760	58.109471	41.375102	59.658094	8.441647	15.625808	12.953481	-10.342533	62.383900	47.747909	46.619712	-11.547827	1.615890
0.073171	-0.879546	-5.982794	97.278600	0.276327	0.748159	0.919132	3.470491	-0.211024	-12.511291	7.204046	0.125734	22.900400	16.435802	0.000000	4.335399	0.825837	-6.212820	7.028547	0.122671	24.112223	5.509282	0.000000	0.096588	0.068338	-0.505488	0.179374	0.090890	-0.537081	0.158685	0.166157	-0.537081	0.110391	0.166157	-0.442302	0.089692	0.139355	-0.410709	0.055191	0.105856	-0.379116	0.689921	0.773053	-2.811375	0.000000	0.000000	25.374224	0.257404	4.836765	13.356867	-5.181260	57.628574	41.621531	59.540317	8.233983	15.849691	12.998275	-10.483312	62.396119	47.893268	49.196734	-11.375190	2.563638
0.097561	-0.833518	-5.946727	97.181900	0.276406	0.747858	0.919010	3.449322	-0.143657	-12.401169	7.204624	0.125744	23.001967	16.465594	0.000000	4.280754	0.783957	-6.187419	7.107808	0.124055	24.101516	5.333135	0.000000	0.100691	0.073547	-0.495402	0.186993	0.097817	-0.526365	0.165425	0.178821	-0.526365	0.115080	0.178821	-0.433477	0.093502	0.149976	-0.402514	0.057535	0.113924	-0.371551	0.719225	0.831975	-2.755277	0.000000	0.000000	25.650982	0.543922	5.059356	13.023290	-5.246196	57.211790	41.866628	59.524004	7.997741	15.918344	13.018046	-10.557782	62.420633	48.000413	50.931371	-11.301789	3.281514
0.121951	-0.807719	-5.912537	97.123269	0.276419	0.747631	0.918843	3.412071	-0.106254	-12.376374	7.212185	0.125876	23.057418	16.484652	0.000000	4.224849	0.759676	-6.149409	7.172776	0.125189	24.106206	5.186579	0.000000	0.105227	0.076682	-0.487784	0.195417	0.101987	-0.518270	0.172878	0.186445	-0.518270	0.120264	0.186445	-0.426811	0.097714	0.156370	-0.396324	0.060127	0.118781	-0.365838	0.751627	0.867444	-2.712907	0.000000	0.000000	25.848827	0.773128	5.284153	12.727277	-5.317076	56.855146	42.105451	59.586989	7.739886	15.846662	13.017540	-10.575981	62.458839	48.071593	51.924265	-11.309799	3.785780
0.146341	-0.798974	-5.881510	97.096541	0.276377	0.747470	0.918648	3.364225	-0.094684	-12.423504	7.226408	0.126125	23.073814	16.494199	0.000000	4.170607	0.749873	-6.105213	7.225645	0.126111	24.123740	5.072958	0.000000	0.109969	0.078081	-0.482094	0.204223	0.103848	-0.512225	0.180668	0.189846	-0.512225	0.125683	0.189846	-0.421833	0.102117	0.159223	-0.391702	0.062836	0.120948	-0.361571	0.785497	0.883268	-2.681265	0.000000	0.000000	25.976023	0.947639	5.509493	12.468437	-5.391412	56.554664	42.333058	59.707106	7.467384	15.649541	13.001504	-10.547948	62.512134	48.109060	52.276060	-11.381391	4.092699
0.170732	-0.804108	-5.854931	97.095552	0.276291	0.747367	0.918444	3.311271	-0.104819	-12.529156	7.246970	0.126483	23.058217	16.495456	0.000000	4.120947	0.751429	-6.061249	7.268611	0.126861	24.151569	4.995615	0.000000	0.114687	0.078080	-0.477795	0.212986	0.103846	-0.507657	0.188420	0.189843	-0.507657	0.131076	0.189843	-0.418071	0.106499	0.159221	-0.388208	0.065532	0.120946	-0.358346	0.819201	0.883255	-2.657352	0.000000	0.000000	26.040834	1.070074	5.733712	12.246385	-5.466712	56.306370	42.544507	59.862189	7.187201	15.341877	12.974684	-10.483723	62.581916	48.115063	52.087398	-11.498740	4.218532
0.195122	-0.819944	-5.834084	97.114134	0.276173	0.747314	0.918247	3.258697	-0.132530	-12.679929	7.273551	0.126947	23.017688	16.489645	0.000000	4.078792	0.761227	-6.023940	7.303867	0.127477	24.187143	4.957893	0.000000	0.119155	0.077015	-0.474346	0.221282	0.102430	-0.503992	0.195759	0.187255	-0.503992	0.136182	0.187255	-0.415053	0.110647	0.157050	-0.385406	0.068085	0.119297	-0.355759	0.851111	0.871212	-2.638169	0.000000	0.000000	26.051524	1.143051	5.955146	12.060730	-5.540488	56.106287	42.734855	60.030070	6.906302	14.938565	12.941826	-10.393346	62.669582	48.091854	51.458920	-11.644018	4.179541
0.219512	-0.843309	-5.820256	97.146124	0.276034	0.747302	0.918075	3.211990	-0.173689	-12.862419	7.305828	0.127511	22.959289	16.477988	0.000000	4.047062	0.776146	-5.999706	7.333609	0.127996	24.227911	4.963136	0.000000	0.123142	0.075224	-0.471208	0.228688	0.100048	-0.500658	0.202311	0.182899	-0.500658	0.140739	0.182899	-0.412307	0.114350	0.153396	-0.382856	0.070364	0.116522	-0.353406	0.879594	0.850946	-2.620717	0.000000	0.000000	26.016354	1.169190	6.172132	11.911084	-5.610248	55.950440	42.899160	60.188584	6.631654	14.454502	12.907679	-10.286855	62.776530	48.041683	50.491269	-11.799398	3.991990
0.243902	-0.871028	-5.814732	97.185355	0.275886	0.747323	0.917944	3.176638	-0.224167	-13.063225	7.343480	0.128168	22.890082	16.461706	0.000000	4.028678	0.793067	-5.994968	7.360032	0.128457	24.271323	5.014687	0.000000	0.126422	0.073042	-0.467842	0.234778	0.097146	-0.497082	0.207699	0.177594	-0.497082	0.144488	0.177594	-0.409362	0.117395	0.148947	-0.380122	0.072237	0.113142	-0.350881	0.903019	0.826265	-2.601996	0.000000	0.000000	25.943590	1.151108	6.383008	11.797060	-5.673502	55.834853	43.032480	60.315564	6.370224	13.904581	12.876987	-10.174290	62.904158	47.966799	49.285088	-11.947053	3.672139
0.268293	-0.884349	-5.833580	97.220743	0.275729	0.747413	0.917984	3.190728	-0.258670	-13.143660	7.348278	0.128252	22.867483	16.368728	0.000000	4.055154	0.794706	-6.041116	7.377552	0.128763	24.327887	5.138462	0.000000	0.128627	0.072913	-0.466064	0.238873	0.096974	-0.495193	0.211321	0.177281	-0.495193	0.147008	0.177281	-0.407806	0.119443	0.148684	-0.378677	0.073497	0.112942	-0.349548	0.918769	0.824808	-2.592107	0.000000	0.000000	25.805273	1.061544	6.620854	11.708173	-5.732286	55.761882	43.155641	60.330376	6.138703	13.013405	12.865878	-10.125744	63.197924	48.000439	48.291043	-12.525038	3.100783
0.292683	-0.897388	-5.859714	97.235252	0.275616	0.747535	0.918157	3.236305	-0.301523	-13.267408	7.385280	0.128897	22.844114	16.327819	0.000000	4.101511	0.790679	-6.167226	7.413166	0.129384	24.359116	5.383965	0.000000	0.127929	0.073332	-0.463995	0.237578	0.097531	-0.492994	0.210175	0.178298	-0.492994	0.146211	0.178298	-0.405995	0.118795	0.149538	-0.376996	0.073099	0.113591	-0.347996	0.913787	0.829541	-2.580599	0.000000	0.000000	25.653538	0.941056	6.875664	11.695093	-5.780092	55.741018	43.274036	60.268487	6.031026	12.263097	12.834799	-10.132399	63.398507	48.079772	47.312526	-12.962777	2.399769
0.317073	-0.904755	-5.889022	97.228653	0.275550	0.747666	0.918471	3.305875	-0.343963	-13.410948	7.448191	0.129995	22.815757	16.315618	0.000000	4.163441	0.778273	-6.326747	7.462933	0.130253	24.366701	5.677094	0.000000	0.124329	0.074526	-0.454755	0.230891	0.099120	-0.483177	0.204260	0.181204	-0.483177	0.142095	0.181204	-0.397910	0.115452	0.151974	-0.369488	0.071041	0.115441	-0.341066	0.888068	0.843058	-2.529209	0.000000	0.000000	25.491372	0.780317	7.092845	11.719565	-5.819993	55.724413	43.386806	60.056947	5.995798	11.670153	12.854348	-10.164430	63.604766	48.117228	46.220340	-12.931460	1.669530
0.341463	-0.902131	-5.937465	97.199536	0.275523	0.747759	0.918879	3.413727	-0.381351	-13.554546	7.535241	0.131515	22.776555	16.324158	0.000000	4.253203	0.756550	-6.497096	7.521429	0.131274	24.353991	5.989052	0.000000	0.120629	0.077572	-0.447506	0.224020	0.103171	-0.475475	0.198181	0.188608	-0.475475	0.137867	0.188608	-0.391567	0.112016	0.158185	-0.363598	0.068927	0.120159	-0.335629	0.861641	0.877508	-2.488892	0.000000	0.000000	25.350548	0.625629	7.387214	11.772562	-5.807272	55.669529	43.427785	59.653018	6.103564	11.366514	12.827331	-10.210900	63.558682	48.177038	45.122206	-12.639319	1.053007
0.365854	-0.893896	-5.997348	97.138831	0.275568	0.747792	0.919358	3.550738	-0.413745	-13.678552	7.640685	0.133355	22.745065	16.368471	0.000000	4.361878	0.723087	-6.748052	7.590073	0.132472	24.350966	6.387828	0.000000	0.116217	0.081051	-0.430519	0.215827	0.107797	-0.457426	0.190933	0.197066	-0.457426	0.132825	0.197066	-0.376704	0.107919	0.165278	-0.349796	0.066407	0.125547	-0.322889	0.830129	0.916860	-2.394416	0.000000	0.000000	25.242923	0.455267	7.649326	11.821005	-5.753150	55.563629	43.385789	59.043212	6.224160	11.211776	12.910388	-10.227450	63.609393	48.079781	44.134479	-11.871014	0.521175
